<?xml version="1.0" encoding="iso-8859-1"?>
<!-- Uploaded to: SVG Repo, www.svgrepo.com, Generator: SVG Repo Mixer Tools -->
<svg version="1.1" id="Layer_1" xmlns="http://www.w3.org/2000/svg" xmlns:xlink="http://www.w3.org/1999/xlink" 
	 viewBox="0 0 512 512" xml:space="preserve">
<g>
	<rect x="343.387" y="71.286" style="fill:#FF9811;" width="36.046" height="50.645"/>
	<polygon style="fill:#FF9811;" points="467.92,275.957 449.897,307.173 493.757,332.498 502.769,316.888 511.78,301.281 	"/>
	<polygon style="fill:#FF9811;" points="468.139,194.212 512,168.889 502.988,153.28 493.977,137.672 450.116,162.994 
		459.128,178.602 	"/>
</g>
<path style="fill:#FFDA44;" d="M361.189,115.797c-65.67,0-119.096,53.428-119.096,119.098s53.426,119.098,119.096,119.098
	s119.098-53.428,119.098-119.098S426.86,115.797,361.189,115.797z"/>
<path style="fill:#AED5F3;" d="M452.744,341.694c0-42.633-28.497-81.461-69.299-94.422l-14.597-4.638l-0.738-15.299
	c-3.362-69.779-60.762-124.441-130.677-124.441c-62.36,0-116.348,44.388-128.376,105.548l-2.959,15.058l-15.15,2.442
	C39.098,234.297,0,280.168,0,332.639c0,59.591,48.483,108.073,108.073,108.073h245.652
	C408.324,440.713,452.744,396.292,452.744,341.694z"/>
<path style="fill:#93C7EF;" d="M383.445,247.273l-14.597-4.638l-0.738-15.299c-3.362-69.779-60.762-124.441-130.677-124.441
	c-4.159,0-8.276,0.213-12.349,0.598v337.221h128.643c54.598,0,99.017-44.421,99.017-99.019
	C452.744,299.06,424.247,260.234,383.445,247.273z"/>
</svg>