<svg xmlns="http://www.w3.org/2000/svg" xmlns:xlink="http://www.w3.org/1999/xlink" width="157" zoomAndPan="magnify" viewBox="0 0 117.75 41.25" height="55" preserveAspectRatio="xMidYMid meet" version="1.0"><defs><g/><clipPath id="9dd5a35575"><path d="M 17.382812 39.039062 L 24.519531 39.039062 L 24.519531 40.511719 L 17.382812 40.511719 Z M 17.382812 39.039062 " clip-rule="nonzero"/></clipPath><clipPath id="f317d86b7f"><path d="M 33.769531 19.382812 L 40.972656 19.382812 L 40.972656 20.550781 L 33.769531 20.550781 Z M 33.769531 19.382812 " clip-rule="nonzero"/></clipPath><clipPath id="3db8da4732"><path d="M 0.929688 19 L 9 19 L 9 21 L 0.929688 21 Z M 0.929688 19 " clip-rule="nonzero"/></clipPath><clipPath id="80db11d5d6"><path d="M 20.183594 23.058594 L 24.273438 23.058594 L 24.273438 26.160156 L 20.183594 26.160156 Z M 20.183594 23.058594 " clip-rule="nonzero"/></clipPath><clipPath id="6be46d86d5"><path d="M 24.183594 25.125 C 24.238281 24.964844 24.273438 24.785156 24.273438 24.609375 C 24.273438 24.429688 24.242188 24.261719 24.191406 24.101562 C 24.1875 24.101562 24.1875 24.097656 24.1875 24.09375 C 23.972656 23.503906 23.402344 23.066406 22.730469 23.058594 L 20.183594 23.058594 L 20.183594 26.160156 L 22.730469 26.160156 C 23.40625 26.148438 23.976562 25.722656 24.183594 25.125 " clip-rule="nonzero"/></clipPath></defs><path fill="#ffffff" d="M 20.945312 10.855469 C 18.832031 10.855469 16.839844 11.640625 15.292969 13.09375 C 13.613281 14.667969 12.6875 16.800781 12.6875 19.097656 C 12.6875 20.964844 13.292969 22.722656 14.445312 24.183594 C 16.019531 26.183594 16.855469 28.5 16.855469 30.878906 L 16.855469 32.328125 C 16.855469 32.574219 17.050781 32.769531 17.296875 32.769531 L 24.617188 32.769531 C 24.839844 32.769531 25.019531 32.589844 25.019531 32.371094 L 25.019531 30.910156 C 25.019531 28.515625 25.859375 26.15625 27.386719 24.273438 C 28.675781 22.675781 29.324219 20.660156 29.203125 18.601562 C 28.960938 14.519531 25.566406 11.125 21.476562 10.871094 C 21.296875 10.863281 21.121094 10.855469 20.945312 10.855469 Z M 24.617188 33.933594 L 17.296875 33.933594 C 16.410156 33.933594 15.6875 33.214844 15.6875 32.328125 L 15.6875 30.878906 C 15.6875 28.761719 14.941406 26.695312 13.527344 24.902344 C 12.214844 23.234375 11.519531 21.226562 11.519531 19.097656 C 11.519531 16.515625 12.601562 14.015625 14.492188 12.246094 C 16.40625 10.449219 18.914062 9.550781 21.546875 9.710938 C 26.296875 10.003906 30.085938 13.796875 30.367188 18.535156 C 30.503906 20.882812 29.769531 23.179688 28.292969 25.003906 C 26.933594 26.679688 26.183594 28.78125 26.183594 30.910156 L 26.183594 32.371094 C 26.183594 33.234375 25.480469 33.933594 24.617188 33.933594 " fill-opacity="1" fill-rule="nonzero"/><path fill="#ffffff" d="M 25.011719 35.46875 L 16.894531 35.46875 C 16.570312 35.46875 16.308594 35.210938 16.308594 34.886719 C 16.308594 34.566406 16.570312 34.304688 16.894531 34.304688 L 25.011719 34.304688 C 25.332031 34.304688 25.59375 34.566406 25.59375 34.886719 C 25.59375 35.210938 25.332031 35.46875 25.011719 35.46875 " fill-opacity="1" fill-rule="nonzero"/><path fill="#ffffff" d="M 25.011719 37.019531 L 16.894531 37.019531 C 16.570312 37.019531 16.308594 36.761719 16.308594 36.4375 C 16.308594 36.117188 16.570312 35.859375 16.894531 35.859375 L 25.011719 35.859375 C 25.332031 35.859375 25.59375 36.117188 25.59375 36.4375 C 25.59375 36.761719 25.332031 37.019531 25.011719 37.019531 " fill-opacity="1" fill-rule="nonzero"/><path fill="#ffffff" d="M 25.011719 38.570312 L 16.894531 38.570312 C 16.570312 38.570312 16.308594 38.3125 16.308594 37.988281 C 16.308594 37.667969 16.570312 37.410156 16.894531 37.410156 L 25.011719 37.410156 C 25.332031 37.410156 25.59375 37.667969 25.59375 37.988281 C 25.59375 38.3125 25.332031 38.570312 25.011719 38.570312 " fill-opacity="1" fill-rule="nonzero"/><g clip-path="url(#9dd5a35575)"><path fill="#ffffff" d="M 23.996094 40.539062 L 17.910156 40.539062 L 17.390625 39.042969 L 24.511719 39.042969 L 23.996094 40.539062 " fill-opacity="1" fill-rule="nonzero"/></g><path fill="#ffffff" d="M 20.953125 7.179688 C 20.628906 7.179688 20.367188 6.921875 20.367188 6.597656 L 20.367188 0.582031 C 20.367188 0.261719 20.628906 0 20.953125 0 C 21.273438 0 21.535156 0.261719 21.535156 0.582031 L 21.535156 6.597656 C 21.535156 6.921875 21.273438 7.179688 20.953125 7.179688 " fill-opacity="1" fill-rule="nonzero"/><path fill="#ffffff" d="M 30.429688 11.097656 C 30.28125 11.097656 30.132812 11.039062 30.015625 10.925781 C 29.789062 10.699219 29.789062 10.332031 30.015625 10.105469 L 34.285156 5.847656 C 34.511719 5.621094 34.878906 5.621094 35.109375 5.847656 C 35.335938 6.074219 35.335938 6.445312 35.109375 6.671875 L 30.839844 10.925781 C 30.726562 11.039062 30.578125 11.097656 30.429688 11.097656 " fill-opacity="1" fill-rule="nonzero"/><g clip-path="url(#f317d86b7f)"><path fill="#ffffff" d="M 40.390625 20.550781 L 34.355469 20.550781 C 34.035156 20.550781 33.773438 20.289062 33.773438 19.96875 C 33.773438 19.648438 34.035156 19.386719 34.355469 19.386719 L 40.390625 19.386719 C 40.710938 19.386719 40.972656 19.648438 40.972656 19.96875 C 40.972656 20.289062 40.710938 20.550781 40.390625 20.550781 " fill-opacity="1" fill-rule="nonzero"/></g><path fill="#ffffff" d="M 34.695312 34.257812 C 34.546875 34.257812 34.398438 34.203125 34.285156 34.085938 L 30.015625 29.832031 C 29.789062 29.605469 29.789062 29.238281 30.015625 29.011719 C 30.246094 28.78125 30.613281 28.78125 30.84375 29.011719 L 35.109375 33.265625 C 35.335938 33.492188 35.335938 33.859375 35.109375 34.085938 C 34.996094 34.203125 34.84375 34.257812 34.695312 34.257812 " fill-opacity="1" fill-rule="nonzero"/><path fill="#ffffff" d="M 7.207031 34.257812 C 7.058594 34.257812 6.910156 34.203125 6.792969 34.085938 C 6.566406 33.859375 6.566406 33.492188 6.792969 33.265625 L 11.0625 29.011719 C 11.289062 28.78125 11.65625 28.78125 11.886719 29.011719 C 12.113281 29.238281 12.113281 29.605469 11.886719 29.832031 L 7.617188 34.085938 C 7.503906 34.203125 7.355469 34.257812 7.207031 34.257812 " fill-opacity="1" fill-rule="nonzero"/><g clip-path="url(#3db8da4732)"><path fill="#ffffff" d="M 7.546875 20.550781 L 1.511719 20.550781 C 1.191406 20.550781 0.929688 20.289062 0.929688 19.96875 C 0.929688 19.648438 1.191406 19.386719 1.511719 19.386719 L 7.546875 19.386719 C 7.871094 19.386719 8.128906 19.648438 8.128906 19.96875 C 8.128906 20.289062 7.871094 20.550781 7.546875 20.550781 " fill-opacity="1" fill-rule="nonzero"/></g><path fill="#ffffff" d="M 11.472656 11.097656 C 11.324219 11.097656 11.175781 11.039062 11.0625 10.925781 L 6.792969 6.671875 C 6.566406 6.445312 6.566406 6.074219 6.792969 5.847656 C 7.023438 5.621094 7.390625 5.621094 7.617188 5.847656 L 11.886719 10.105469 C 12.113281 10.332031 12.113281 10.699219 11.886719 10.925781 C 11.773438 11.039062 11.621094 11.097656 11.472656 11.097656 " fill-opacity="1" fill-rule="nonzero"/><path stroke-linecap="butt" transform="matrix(0.000000000000000008, 0.124735, -0.12398, 0.000000000000000008, 21.173931, 23.027073)" fill="none" stroke-linejoin="miter" d="M 0.00217214 3.986482 L 79.514491 3.986482 " stroke="#ffffff" stroke-width="8" stroke-opacity="1" stroke-miterlimit="4"/><path stroke-linecap="butt" transform="matrix(0.12369, 0, 0, 0.12398, 17.19795, 28.018615)" fill="none" stroke-linejoin="miter" d="M 0.010259 4.008803 L 60.140493 4.008803 " stroke="#ffffff" stroke-width="8" stroke-opacity="1" stroke-miterlimit="4"/><g clip-path="url(#80db11d5d6)"><g clip-path="url(#6be46d86d5)"><path stroke-linecap="butt" transform="matrix(0.000000000000000008, -0.122676, 0.122243, 0.000000000000000007, 20.182834, 26.158642)" fill="none" stroke-linejoin="miter" d="M 8.425766 32.727827 C 9.731285 33.175193 11.196013 33.462785 12.6289 33.462785 C 14.093628 33.462785 15.462831 33.207148 16.76835 32.791736 C 16.76835 32.759782 16.800192 32.759782 16.832034 32.759782 C 21.640164 31.002273 25.206459 26.336887 25.270143 20.840678 L 25.270143 0.00621259 L -0.012343 0.00621259 L -0.012343 20.840678 C 0.0831827 26.368841 3.553952 31.034228 8.425766 32.727827 " stroke="#ffffff" stroke-width="13.098721" stroke-opacity="1" stroke-miterlimit="4"/></g></g><g fill="#ffffff" fill-opacity="1"><g transform="translate(48.244559, 16.608849)"><g><path d="M 7.578125 -6.015625 C 7.578125 -5.234375 7.273438 -4.640625 6.671875 -4.234375 C 6.066406 -3.828125 5.1875 -3.625 4.03125 -3.625 L 3.109375 -3.625 L 3.109375 -1.71875 C 3.109375 -1.445312 3.125 -1.222656 3.15625 -1.046875 C 3.195312 -0.878906 3.273438 -0.75 3.390625 -0.65625 C 3.503906 -0.5625 3.660156 -0.5 3.859375 -0.46875 C 4.066406 -0.445312 4.335938 -0.4375 4.671875 -0.4375 L 4.671875 0 L 0.375 0 L 0.375 -0.4375 C 0.613281 -0.4375 0.804688 -0.453125 0.953125 -0.484375 C 1.109375 -0.523438 1.222656 -0.585938 1.296875 -0.671875 C 1.378906 -0.765625 1.4375 -0.890625 1.46875 -1.046875 C 1.5 -1.203125 1.515625 -1.410156 1.515625 -1.671875 L 1.515625 -6.671875 C 1.515625 -6.921875 1.5 -7.125 1.46875 -7.28125 C 1.445312 -7.4375 1.398438 -7.554688 1.328125 -7.640625 C 1.253906 -7.734375 1.148438 -7.796875 1.015625 -7.828125 C 0.890625 -7.859375 0.71875 -7.882812 0.5 -7.90625 L 0.5 -8.34375 L 4.25 -8.34375 C 5.34375 -8.34375 6.171875 -8.144531 6.734375 -7.75 C 7.296875 -7.363281 7.578125 -6.785156 7.578125 -6.015625 Z M 3.109375 -4.28125 L 3.8125 -4.28125 C 4.507812 -4.28125 5.019531 -4.421875 5.34375 -4.703125 C 5.675781 -4.984375 5.84375 -5.425781 5.84375 -6.03125 C 5.84375 -6.570312 5.703125 -6.988281 5.421875 -7.28125 C 5.148438 -7.582031 4.722656 -7.734375 4.140625 -7.734375 L 3.296875 -7.734375 C 3.171875 -7.734375 3.109375 -7.671875 3.109375 -7.546875 Z M 3.109375 -4.28125 "/></g></g></g><g fill="#ffffff" fill-opacity="1"><g transform="translate(56.001685, 16.608849)"><g><path d="M 7.53125 -6.25 C 7.53125 -5.644531 7.351562 -5.140625 7 -4.734375 C 6.65625 -4.335938 6.101562 -4.070312 5.34375 -3.9375 L 7.859375 -1.046875 C 8.035156 -0.847656 8.238281 -0.695312 8.46875 -0.59375 C 8.707031 -0.488281 8.953125 -0.4375 9.203125 -0.4375 L 9.203125 0 L 6.640625 0 L 3.953125 -3.296875 C 3.773438 -3.503906 3.617188 -3.644531 3.484375 -3.71875 C 3.347656 -3.800781 3.222656 -3.84375 3.109375 -3.84375 L 3.109375 -1.71875 C 3.109375 -1.457031 3.125 -1.238281 3.15625 -1.0625 C 3.195312 -0.894531 3.269531 -0.765625 3.375 -0.671875 C 3.488281 -0.578125 3.644531 -0.515625 3.84375 -0.484375 C 4.050781 -0.453125 4.328125 -0.4375 4.671875 -0.4375 L 4.671875 0 L 0.375 0 L 0.375 -0.4375 C 0.613281 -0.4375 0.804688 -0.453125 0.953125 -0.484375 C 1.109375 -0.515625 1.222656 -0.570312 1.296875 -0.65625 C 1.378906 -0.75 1.4375 -0.875 1.46875 -1.03125 C 1.5 -1.195312 1.515625 -1.410156 1.515625 -1.671875 L 1.515625 -6.671875 C 1.515625 -6.921875 1.503906 -7.125 1.484375 -7.28125 C 1.460938 -7.4375 1.414062 -7.554688 1.34375 -7.640625 C 1.269531 -7.734375 1.164062 -7.796875 1.03125 -7.828125 C 0.894531 -7.859375 0.71875 -7.882812 0.5 -7.90625 L 0.5 -8.34375 L 4.25 -8.34375 C 5.289062 -8.34375 6.097656 -8.15625 6.671875 -7.78125 C 7.242188 -7.414062 7.53125 -6.90625 7.53125 -6.25 Z M 3.109375 -4.5 L 3.8125 -4.5 C 4.488281 -4.5 4.992188 -4.628906 5.328125 -4.890625 C 5.671875 -5.148438 5.84375 -5.582031 5.84375 -6.1875 C 5.84375 -6.65625 5.695312 -7.03125 5.40625 -7.3125 C 5.125 -7.59375 4.738281 -7.734375 4.25 -7.734375 L 3.296875 -7.734375 C 3.171875 -7.734375 3.109375 -7.671875 3.109375 -7.546875 Z M 3.109375 -4.5 "/></g></g></g><g fill="#ffffff" fill-opacity="1"><g transform="translate(64.819053, 16.608849)"><g><path d="M 5.109375 -8.453125 C 5.753906 -8.453125 6.359375 -8.335938 6.921875 -8.109375 C 7.492188 -7.890625 7.984375 -7.582031 8.390625 -7.1875 C 8.804688 -6.800781 9.132812 -6.34375 9.375 -5.8125 C 9.613281 -5.289062 9.734375 -4.722656 9.734375 -4.109375 C 9.734375 -3.523438 9.613281 -2.972656 9.375 -2.453125 C 9.132812 -1.941406 8.804688 -1.492188 8.390625 -1.109375 C 7.972656 -0.734375 7.484375 -0.4375 6.921875 -0.21875 C 6.359375 0 5.753906 0.109375 5.109375 0.109375 C 4.460938 0.109375 3.859375 0 3.296875 -0.21875 C 2.734375 -0.4375 2.242188 -0.734375 1.828125 -1.109375 C 1.410156 -1.492188 1.082031 -1.941406 0.84375 -2.453125 C 0.601562 -2.972656 0.484375 -3.523438 0.484375 -4.109375 C 0.484375 -4.722656 0.601562 -5.289062 0.84375 -5.8125 C 1.082031 -6.34375 1.410156 -6.800781 1.828125 -7.1875 C 2.242188 -7.582031 2.734375 -7.890625 3.296875 -8.109375 C 3.859375 -8.335938 4.460938 -8.453125 5.109375 -8.453125 Z M 5.109375 -0.59375 C 5.523438 -0.59375 5.898438 -0.671875 6.234375 -0.828125 C 6.578125 -0.992188 6.867188 -1.226562 7.109375 -1.53125 C 7.347656 -1.832031 7.53125 -2.195312 7.65625 -2.625 C 7.78125 -3.050781 7.84375 -3.535156 7.84375 -4.078125 C 7.84375 -4.640625 7.78125 -5.144531 7.65625 -5.59375 C 7.53125 -6.039062 7.347656 -6.425781 7.109375 -6.75 C 6.867188 -7.070312 6.578125 -7.316406 6.234375 -7.484375 C 5.898438 -7.648438 5.523438 -7.734375 5.109375 -7.734375 C 4.679688 -7.734375 4.300781 -7.648438 3.96875 -7.484375 C 3.632812 -7.316406 3.347656 -7.070312 3.109375 -6.75 C 2.867188 -6.425781 2.6875 -6.039062 2.5625 -5.59375 C 2.4375 -5.144531 2.375 -4.640625 2.375 -4.078125 C 2.375 -3.535156 2.4375 -3.050781 2.5625 -2.625 C 2.6875 -2.195312 2.867188 -1.832031 3.109375 -1.53125 C 3.347656 -1.226562 3.632812 -0.992188 3.96875 -0.828125 C 4.300781 -0.671875 4.679688 -0.59375 5.109375 -0.59375 Z M 5.109375 -0.59375 "/></g></g></g><g fill="#ffffff" fill-opacity="1"><g transform="translate(75.021235, 16.608849)"><g><path d="M 0.375 0 L 0.375 -0.4375 C 0.613281 -0.4375 0.804688 -0.453125 0.953125 -0.484375 C 1.109375 -0.523438 1.222656 -0.585938 1.296875 -0.671875 C 1.378906 -0.765625 1.4375 -0.890625 1.46875 -1.046875 C 1.5 -1.203125 1.515625 -1.410156 1.515625 -1.671875 L 1.515625 -6.671875 C 1.515625 -6.921875 1.503906 -7.125 1.484375 -7.28125 C 1.460938 -7.4375 1.414062 -7.554688 1.34375 -7.640625 C 1.269531 -7.734375 1.171875 -7.796875 1.046875 -7.828125 C 0.921875 -7.859375 0.753906 -7.882812 0.546875 -7.90625 L 0.546875 -8.34375 L 4.671875 -8.34375 C 5.359375 -8.34375 5.992188 -8.234375 6.578125 -8.015625 C 7.160156 -7.796875 7.664062 -7.492188 8.09375 -7.109375 C 8.519531 -6.734375 8.851562 -6.28125 9.09375 -5.75 C 9.332031 -5.21875 9.453125 -4.644531 9.453125 -4.03125 C 9.453125 -3.4375 9.335938 -2.890625 9.109375 -2.390625 C 8.890625 -1.898438 8.578125 -1.476562 8.171875 -1.125 C 7.773438 -0.769531 7.296875 -0.492188 6.734375 -0.296875 C 6.179688 -0.0976562 5.566406 0 4.890625 0 Z M 3.296875 -7.671875 C 3.171875 -7.671875 3.109375 -7.613281 3.109375 -7.5 L 3.109375 -1.890625 C 3.109375 -1.472656 3.238281 -1.160156 3.5 -0.953125 C 3.757812 -0.753906 4.160156 -0.65625 4.703125 -0.65625 C 5.648438 -0.65625 6.375 -0.941406 6.875 -1.515625 C 7.382812 -2.085938 7.640625 -2.914062 7.640625 -4 C 7.640625 -4.582031 7.570312 -5.097656 7.4375 -5.546875 C 7.300781 -6.003906 7.101562 -6.390625 6.84375 -6.703125 C 6.582031 -7.015625 6.265625 -7.253906 5.890625 -7.421875 C 5.523438 -7.585938 5.109375 -7.671875 4.640625 -7.671875 Z M 3.296875 -7.671875 "/></g></g></g><g fill="#ffffff" fill-opacity="1"><g transform="translate(84.963768, 16.608849)"><g><path d="M 4.25 0 L 0.390625 0 L 0.390625 -0.4375 C 0.640625 -0.4375 0.835938 -0.457031 0.984375 -0.5 C 1.128906 -0.539062 1.238281 -0.613281 1.3125 -0.71875 C 1.394531 -0.832031 1.453125 -0.988281 1.484375 -1.1875 C 1.515625 -1.382812 1.53125 -1.65625 1.53125 -2 L 1.53125 -6.34375 C 1.53125 -6.644531 1.515625 -6.894531 1.484375 -7.09375 C 1.460938 -7.289062 1.414062 -7.445312 1.34375 -7.5625 C 1.269531 -7.675781 1.164062 -7.753906 1.03125 -7.796875 C 0.894531 -7.847656 0.71875 -7.882812 0.5 -7.90625 L 0.5 -8.34375 L 4.140625 -8.34375 L 4.140625 -7.90625 C 3.921875 -7.882812 3.742188 -7.847656 3.609375 -7.796875 C 3.472656 -7.753906 3.367188 -7.675781 3.296875 -7.5625 C 3.222656 -7.445312 3.175781 -7.289062 3.15625 -7.09375 C 3.132812 -6.894531 3.125 -6.644531 3.125 -6.34375 L 3.125 -2 C 3.125 -1.65625 3.132812 -1.382812 3.15625 -1.1875 C 3.175781 -0.988281 3.226562 -0.832031 3.3125 -0.71875 C 3.394531 -0.613281 3.507812 -0.539062 3.65625 -0.5 C 3.8125 -0.457031 4.007812 -0.4375 4.25 -0.4375 Z M 4.25 0 "/></g></g></g><g fill="#ffffff" fill-opacity="1"><g transform="translate(89.605056, 16.608849)"><g><path d="M 4.75 0.109375 C 4.09375 0.109375 3.503906 0.015625 2.984375 -0.171875 C 2.460938 -0.367188 2.019531 -0.644531 1.65625 -1 C 1.289062 -1.351562 1.007812 -1.785156 0.8125 -2.296875 C 0.613281 -2.804688 0.515625 -3.378906 0.515625 -4.015625 C 0.515625 -4.671875 0.617188 -5.269531 0.828125 -5.8125 C 1.035156 -6.363281 1.332031 -6.832031 1.71875 -7.21875 C 2.101562 -7.613281 2.5625 -7.914062 3.09375 -8.125 C 3.625 -8.34375 4.21875 -8.453125 4.875 -8.453125 C 5.320312 -8.453125 5.742188 -8.390625 6.140625 -8.265625 C 6.546875 -8.140625 6.984375 -7.941406 7.453125 -7.671875 L 7.671875 -8.34375 L 8.0625 -8.34375 L 8.0625 -5.59375 L 7.515625 -5.59375 C 7.367188 -6.269531 7.078125 -6.796875 6.640625 -7.171875 C 6.203125 -7.546875 5.65625 -7.734375 5 -7.734375 C 4.164062 -7.734375 3.519531 -7.414062 3.0625 -6.78125 C 2.601562 -6.144531 2.375 -5.253906 2.375 -4.109375 C 2.375 -2.984375 2.597656 -2.117188 3.046875 -1.515625 C 3.492188 -0.921875 4.144531 -0.625 5 -0.625 C 5.613281 -0.625 6.09375 -0.78125 6.4375 -1.09375 C 6.78125 -1.40625 6.953125 -1.835938 6.953125 -2.390625 C 6.953125 -2.722656 6.863281 -2.96875 6.6875 -3.125 C 6.519531 -3.28125 6.226562 -3.375 5.8125 -3.40625 L 5.8125 -3.84375 L 9.328125 -3.84375 L 9.328125 -3.40625 C 8.972656 -3.40625 8.722656 -3.328125 8.578125 -3.171875 C 8.441406 -3.015625 8.375 -2.738281 8.375 -2.34375 L 8.375 -0.90625 C 8.21875 -0.90625 8.082031 -0.894531 7.96875 -0.875 C 7.863281 -0.863281 7.757812 -0.84375 7.65625 -0.8125 C 7.550781 -0.78125 7.429688 -0.726562 7.296875 -0.65625 C 7.171875 -0.582031 7.015625 -0.488281 6.828125 -0.375 C 6.265625 -0.0507812 5.570312 0.109375 4.75 0.109375 Z M 4.75 0.109375 "/></g></g></g><g fill="#ffffff" fill-opacity="1"><g transform="translate(99.082381, 16.608849)"><g><path d="M 1.09375 -6.96875 C 0.988281 -7.15625 0.890625 -7.3125 0.796875 -7.4375 C 0.703125 -7.5625 0.609375 -7.65625 0.515625 -7.71875 C 0.421875 -7.789062 0.316406 -7.835938 0.203125 -7.859375 C 0.0976562 -7.890625 -0.0195312 -7.90625 -0.15625 -7.90625 L -0.15625 -8.34375 L 3.484375 -8.34375 L 3.484375 -7.90625 C 3.179688 -7.90625 2.96875 -7.875 2.84375 -7.8125 C 2.71875 -7.757812 2.65625 -7.675781 2.65625 -7.5625 C 2.65625 -7.488281 2.675781 -7.398438 2.71875 -7.296875 C 2.769531 -7.191406 2.84375 -7.054688 2.9375 -6.890625 L 4.484375 -3.9375 L 4.53125 -3.9375 L 5.890625 -6.203125 C 6.128906 -6.609375 6.296875 -6.910156 6.390625 -7.109375 C 6.484375 -7.304688 6.53125 -7.460938 6.53125 -7.578125 C 6.53125 -7.703125 6.472656 -7.785156 6.359375 -7.828125 C 6.242188 -7.878906 6.035156 -7.90625 5.734375 -7.90625 L 5.734375 -8.34375 L 8.453125 -8.34375 L 8.453125 -7.90625 C 8.296875 -7.90625 8.148438 -7.878906 8.015625 -7.828125 C 7.890625 -7.773438 7.753906 -7.675781 7.609375 -7.53125 C 7.472656 -7.382812 7.316406 -7.175781 7.140625 -6.90625 C 6.960938 -6.644531 6.75 -6.300781 6.5 -5.875 L 4.921875 -3.171875 L 4.921875 -2.0625 C 4.921875 -1.707031 4.9375 -1.421875 4.96875 -1.203125 C 5.007812 -0.984375 5.066406 -0.816406 5.140625 -0.703125 C 5.222656 -0.597656 5.335938 -0.523438 5.484375 -0.484375 C 5.628906 -0.453125 5.816406 -0.4375 6.046875 -0.4375 L 6.046875 0 L 2.203125 0 L 2.203125 -0.4375 C 2.421875 -0.4375 2.601562 -0.453125 2.75 -0.484375 C 2.90625 -0.523438 3.023438 -0.597656 3.109375 -0.703125 C 3.191406 -0.804688 3.25 -0.960938 3.28125 -1.171875 C 3.3125 -1.378906 3.328125 -1.65625 3.328125 -2 L 3.328125 -2.984375 Z M 1.09375 -6.96875 "/></g></g></g><g fill="#ffffff" fill-opacity="1"><g transform="translate(43.36571, 31.372269)"><g><path d="M 4.25 0 L 0.390625 0 L 0.390625 -0.4375 C 0.640625 -0.4375 0.835938 -0.457031 0.984375 -0.5 C 1.128906 -0.539062 1.238281 -0.613281 1.3125 -0.71875 C 1.394531 -0.832031 1.453125 -0.988281 1.484375 -1.1875 C 1.515625 -1.382812 1.53125 -1.65625 1.53125 -2 L 1.53125 -6.34375 C 1.53125 -6.644531 1.515625 -6.894531 1.484375 -7.09375 C 1.460938 -7.289062 1.414062 -7.445312 1.34375 -7.5625 C 1.269531 -7.675781 1.164062 -7.753906 1.03125 -7.796875 C 0.894531 -7.847656 0.71875 -7.882812 0.5 -7.90625 L 0.5 -8.34375 L 4.140625 -8.34375 L 4.140625 -7.90625 C 3.921875 -7.882812 3.742188 -7.847656 3.609375 -7.796875 C 3.472656 -7.753906 3.367188 -7.675781 3.296875 -7.5625 C 3.222656 -7.445312 3.175781 -7.289062 3.15625 -7.09375 C 3.132812 -6.894531 3.125 -6.644531 3.125 -6.34375 L 3.125 -2 C 3.125 -1.65625 3.132812 -1.382812 3.15625 -1.1875 C 3.175781 -0.988281 3.226562 -0.832031 3.3125 -0.71875 C 3.394531 -0.613281 3.507812 -0.539062 3.65625 -0.5 C 3.8125 -0.457031 4.007812 -0.4375 4.25 -0.4375 Z M 4.25 0 "/></g></g></g><g fill="#ffffff" fill-opacity="1"><g transform="translate(48.006999, 31.372269)"><g><path d="M 7.25 0.109375 L 2.453125 -6.71875 L 2.421875 -6.71875 L 2.421875 -2.0625 C 2.421875 -1.707031 2.429688 -1.425781 2.453125 -1.21875 C 2.472656 -1.007812 2.523438 -0.84375 2.609375 -0.71875 C 2.691406 -0.601562 2.804688 -0.523438 2.953125 -0.484375 C 3.109375 -0.453125 3.304688 -0.4375 3.546875 -0.4375 L 3.546875 0 L 0.328125 0 L 0.328125 -0.4375 C 0.585938 -0.4375 0.800781 -0.457031 0.96875 -0.5 C 1.132812 -0.539062 1.257812 -0.613281 1.34375 -0.71875 C 1.4375 -0.832031 1.492188 -0.988281 1.515625 -1.1875 C 1.546875 -1.382812 1.5625 -1.65625 1.5625 -2 L 1.5625 -6.34375 C 1.5625 -6.644531 1.546875 -6.894531 1.515625 -7.09375 C 1.492188 -7.289062 1.441406 -7.445312 1.359375 -7.5625 C 1.285156 -7.675781 1.171875 -7.753906 1.015625 -7.796875 C 0.867188 -7.847656 0.675781 -7.882812 0.4375 -7.90625 L 0.4375 -8.34375 L 3.453125 -8.34375 L 7.8125 -2.078125 L 7.859375 -2.078125 L 7.859375 -6.265625 C 7.859375 -6.617188 7.84375 -6.898438 7.8125 -7.109375 C 7.789062 -7.328125 7.738281 -7.492188 7.65625 -7.609375 C 7.570312 -7.722656 7.457031 -7.796875 7.3125 -7.828125 C 7.164062 -7.867188 6.972656 -7.894531 6.734375 -7.90625 L 6.734375 -8.34375 L 9.953125 -8.34375 L 9.953125 -7.90625 C 9.679688 -7.894531 9.460938 -7.867188 9.296875 -7.828125 C 9.140625 -7.796875 9.015625 -7.722656 8.921875 -7.609375 C 8.835938 -7.503906 8.78125 -7.347656 8.75 -7.140625 C 8.71875 -6.941406 8.703125 -6.675781 8.703125 -6.34375 L 8.703125 0.109375 Z M 7.25 0.109375 "/></g></g></g><g fill="#ffffff" fill-opacity="1"><g transform="translate(58.17673, 31.372269)"><g><path d="M 3.109375 -1.75 C 3.109375 -1.46875 3.125 -1.242188 3.15625 -1.078125 C 3.195312 -0.910156 3.269531 -0.78125 3.375 -0.6875 C 3.488281 -0.59375 3.648438 -0.523438 3.859375 -0.484375 C 4.066406 -0.453125 4.34375 -0.4375 4.6875 -0.4375 L 4.6875 0 L 0.375 0 L 0.375 -0.4375 C 0.613281 -0.4375 0.804688 -0.453125 0.953125 -0.484375 C 1.109375 -0.523438 1.222656 -0.585938 1.296875 -0.671875 C 1.378906 -0.765625 1.4375 -0.890625 1.46875 -1.046875 C 1.5 -1.203125 1.515625 -1.410156 1.515625 -1.671875 L 1.515625 -6.671875 C 1.515625 -6.921875 1.5 -7.125 1.46875 -7.28125 C 1.445312 -7.4375 1.398438 -7.554688 1.328125 -7.640625 C 1.253906 -7.734375 1.148438 -7.796875 1.015625 -7.828125 C 0.890625 -7.859375 0.71875 -7.882812 0.5 -7.90625 L 0.5 -8.34375 L 7.125 -8.34375 L 7.25 -6.046875 L 6.796875 -6.046875 C 6.753906 -6.359375 6.691406 -6.617188 6.609375 -6.828125 C 6.523438 -7.046875 6.40625 -7.222656 6.25 -7.359375 C 6.101562 -7.492188 5.910156 -7.585938 5.671875 -7.640625 C 5.429688 -7.703125 5.140625 -7.734375 4.796875 -7.734375 L 3.296875 -7.734375 C 3.171875 -7.734375 3.109375 -7.671875 3.109375 -7.546875 L 3.109375 -4.421875 C 3.546875 -4.421875 3.90625 -4.4375 4.1875 -4.46875 C 4.46875 -4.507812 4.6875 -4.582031 4.84375 -4.6875 C 5.007812 -4.789062 5.128906 -4.929688 5.203125 -5.109375 C 5.273438 -5.285156 5.328125 -5.523438 5.359375 -5.828125 L 5.765625 -5.828125 L 5.765625 -2.4375 L 5.359375 -2.4375 C 5.316406 -2.738281 5.253906 -2.976562 5.171875 -3.15625 C 5.097656 -3.34375 4.976562 -3.484375 4.8125 -3.578125 C 4.644531 -3.679688 4.425781 -3.75 4.15625 -3.78125 C 3.882812 -3.820312 3.535156 -3.84375 3.109375 -3.84375 Z M 3.109375 -1.75 "/></g></g></g><g fill="#ffffff" fill-opacity="1"><g transform="translate(65.630921, 31.372269)"><g><path d="M 5.109375 -8.453125 C 5.753906 -8.453125 6.359375 -8.335938 6.921875 -8.109375 C 7.492188 -7.890625 7.984375 -7.582031 8.390625 -7.1875 C 8.804688 -6.800781 9.132812 -6.34375 9.375 -5.8125 C 9.613281 -5.289062 9.734375 -4.722656 9.734375 -4.109375 C 9.734375 -3.523438 9.613281 -2.972656 9.375 -2.453125 C 9.132812 -1.941406 8.804688 -1.492188 8.390625 -1.109375 C 7.972656 -0.734375 7.484375 -0.4375 6.921875 -0.21875 C 6.359375 0 5.753906 0.109375 5.109375 0.109375 C 4.460938 0.109375 3.859375 0 3.296875 -0.21875 C 2.734375 -0.4375 2.242188 -0.734375 1.828125 -1.109375 C 1.410156 -1.492188 1.082031 -1.941406 0.84375 -2.453125 C 0.601562 -2.972656 0.484375 -3.523438 0.484375 -4.109375 C 0.484375 -4.722656 0.601562 -5.289062 0.84375 -5.8125 C 1.082031 -6.34375 1.410156 -6.800781 1.828125 -7.1875 C 2.242188 -7.582031 2.734375 -7.890625 3.296875 -8.109375 C 3.859375 -8.335938 4.460938 -8.453125 5.109375 -8.453125 Z M 5.109375 -0.59375 C 5.523438 -0.59375 5.898438 -0.671875 6.234375 -0.828125 C 6.578125 -0.992188 6.867188 -1.226562 7.109375 -1.53125 C 7.347656 -1.832031 7.53125 -2.195312 7.65625 -2.625 C 7.78125 -3.050781 7.84375 -3.535156 7.84375 -4.078125 C 7.84375 -4.640625 7.78125 -5.144531 7.65625 -5.59375 C 7.53125 -6.039062 7.347656 -6.425781 7.109375 -6.75 C 6.867188 -7.070312 6.578125 -7.316406 6.234375 -7.484375 C 5.898438 -7.648438 5.523438 -7.734375 5.109375 -7.734375 C 4.679688 -7.734375 4.300781 -7.648438 3.96875 -7.484375 C 3.632812 -7.316406 3.347656 -7.070312 3.109375 -6.75 C 2.867188 -6.425781 2.6875 -6.039062 2.5625 -5.59375 C 2.4375 -5.144531 2.375 -4.640625 2.375 -4.078125 C 2.375 -3.535156 2.4375 -3.050781 2.5625 -2.625 C 2.6875 -2.195312 2.867188 -1.832031 3.109375 -1.53125 C 3.347656 -1.226562 3.632812 -0.992188 3.96875 -0.828125 C 4.300781 -0.671875 4.679688 -0.59375 5.109375 -0.59375 Z M 5.109375 -0.59375 "/></g></g></g><g fill="#ffffff" fill-opacity="1"><g transform="translate(75.833103, 31.372269)"><g><path d="M 8.828125 -5.953125 L 8.359375 -5.953125 C 8.335938 -6.304688 8.285156 -6.597656 8.203125 -6.828125 C 8.117188 -7.066406 8 -7.253906 7.84375 -7.390625 C 7.695312 -7.535156 7.515625 -7.632812 7.296875 -7.6875 C 7.078125 -7.75 6.828125 -7.78125 6.546875 -7.78125 C 6.265625 -7.78125 6.035156 -7.769531 5.859375 -7.75 C 5.691406 -7.738281 5.5625 -7.722656 5.46875 -7.703125 C 5.382812 -7.679688 5.328125 -7.644531 5.296875 -7.59375 C 5.265625 -7.550781 5.25 -7.5 5.25 -7.4375 L 5.25 -1.765625 C 5.25 -1.535156 5.265625 -1.335938 5.296875 -1.171875 C 5.328125 -1.003906 5.394531 -0.867188 5.5 -0.765625 C 5.601562 -0.660156 5.75 -0.578125 5.9375 -0.515625 C 6.132812 -0.460938 6.394531 -0.4375 6.71875 -0.4375 L 6.71875 0 L 2.171875 0 L 2.171875 -0.4375 C 2.492188 -0.4375 2.753906 -0.460938 2.953125 -0.515625 C 3.148438 -0.578125 3.300781 -0.660156 3.40625 -0.765625 C 3.507812 -0.867188 3.578125 -1.003906 3.609375 -1.171875 C 3.640625 -1.335938 3.65625 -1.535156 3.65625 -1.765625 L 3.65625 -7.4375 C 3.65625 -7.5 3.640625 -7.550781 3.609375 -7.59375 C 3.585938 -7.644531 3.535156 -7.679688 3.453125 -7.703125 C 3.378906 -7.722656 3.269531 -7.738281 3.125 -7.75 C 2.976562 -7.769531 2.785156 -7.78125 2.546875 -7.78125 C 2.285156 -7.78125 2.035156 -7.765625 1.796875 -7.734375 C 1.554688 -7.710938 1.347656 -7.640625 1.171875 -7.515625 C 0.992188 -7.398438 0.847656 -7.21875 0.734375 -6.96875 C 0.617188 -6.726562 0.554688 -6.390625 0.546875 -5.953125 L 0.125 -5.953125 L 0.234375 -8.34375 L 8.71875 -8.34375 Z M 8.828125 -5.953125 "/></g></g></g><g fill="#ffffff" fill-opacity="1"><g transform="translate(84.780295, 31.372269)"><g><path d="M 3.109375 -4.609375 C 3.566406 -4.609375 3.9375 -4.625 4.21875 -4.65625 C 4.5 -4.6875 4.71875 -4.742188 4.875 -4.828125 C 5.03125 -4.921875 5.140625 -5.050781 5.203125 -5.21875 C 5.273438 -5.394531 5.328125 -5.632812 5.359375 -5.9375 L 5.765625 -5.9375 L 5.765625 -2.765625 L 5.359375 -2.765625 C 5.316406 -3.046875 5.257812 -3.273438 5.1875 -3.453125 C 5.113281 -3.628906 5 -3.757812 4.84375 -3.84375 C 4.6875 -3.9375 4.472656 -3.992188 4.203125 -4.015625 C 3.929688 -4.046875 3.566406 -4.0625 3.109375 -4.0625 L 3.109375 -1.828125 C 3.109375 -1.597656 3.140625 -1.398438 3.203125 -1.234375 C 3.265625 -1.078125 3.363281 -0.953125 3.5 -0.859375 C 3.644531 -0.765625 3.835938 -0.695312 4.078125 -0.65625 C 4.316406 -0.613281 4.609375 -0.59375 4.953125 -0.59375 C 5.367188 -0.59375 5.71875 -0.617188 6 -0.671875 C 6.289062 -0.734375 6.53125 -0.835938 6.71875 -0.984375 C 6.90625 -1.128906 7.054688 -1.320312 7.171875 -1.5625 C 7.285156 -1.800781 7.378906 -2.109375 7.453125 -2.484375 L 7.890625 -2.484375 L 7.71875 0 L 0.375 0 L 0.375 -0.4375 C 0.613281 -0.4375 0.804688 -0.453125 0.953125 -0.484375 C 1.109375 -0.523438 1.222656 -0.585938 1.296875 -0.671875 C 1.378906 -0.765625 1.4375 -0.890625 1.46875 -1.046875 C 1.5 -1.203125 1.515625 -1.410156 1.515625 -1.671875 L 1.515625 -6.671875 C 1.515625 -6.921875 1.5 -7.125 1.46875 -7.28125 C 1.445312 -7.4375 1.398438 -7.554688 1.328125 -7.640625 C 1.253906 -7.734375 1.148438 -7.796875 1.015625 -7.828125 C 0.890625 -7.859375 0.71875 -7.882812 0.5 -7.90625 L 0.5 -8.34375 L 7.34375 -8.34375 L 7.421875 -6.21875 L 6.953125 -6.21875 C 6.910156 -6.519531 6.84375 -6.769531 6.75 -6.96875 C 6.65625 -7.164062 6.523438 -7.320312 6.359375 -7.4375 C 6.191406 -7.5625 5.972656 -7.644531 5.703125 -7.6875 C 5.441406 -7.738281 5.125 -7.765625 4.75 -7.765625 L 3.515625 -7.765625 C 3.328125 -7.765625 3.210938 -7.738281 3.171875 -7.6875 C 3.128906 -7.644531 3.109375 -7.535156 3.109375 -7.359375 Z M 3.109375 -4.609375 "/></g></g></g><g fill="#ffffff" fill-opacity="1"><g transform="translate(93.045905, 31.372269)"><g><path d="M 7.65625 -8.34375 L 8.1875 -8.34375 L 7.96875 -5.59375 L 7.53125 -5.59375 C 7.382812 -6.257812 7.09375 -6.78125 6.65625 -7.15625 C 6.21875 -7.539062 5.6875 -7.734375 5.0625 -7.734375 C 4.632812 -7.734375 4.253906 -7.648438 3.921875 -7.484375 C 3.597656 -7.316406 3.320312 -7.078125 3.09375 -6.765625 C 2.863281 -6.453125 2.6875 -6.066406 2.5625 -5.609375 C 2.445312 -5.160156 2.390625 -4.65625 2.390625 -4.09375 C 2.390625 -2.976562 2.617188 -2.117188 3.078125 -1.515625 C 3.535156 -0.910156 4.210938 -0.609375 5.109375 -0.609375 C 5.828125 -0.609375 6.421875 -0.800781 6.890625 -1.1875 C 7.367188 -1.582031 7.710938 -2.164062 7.921875 -2.9375 L 8.390625 -2.9375 L 8.390625 0 L 7.875 0 L 7.734375 -0.859375 C 6.941406 -0.210938 5.976562 0.109375 4.84375 0.109375 C 4.1875 0.109375 3.585938 0.015625 3.046875 -0.171875 C 2.515625 -0.367188 2.0625 -0.644531 1.6875 -1 C 1.3125 -1.363281 1.019531 -1.800781 0.8125 -2.3125 C 0.613281 -2.832031 0.515625 -3.40625 0.515625 -4.03125 C 0.515625 -4.6875 0.617188 -5.285156 0.828125 -5.828125 C 1.046875 -6.367188 1.351562 -6.832031 1.75 -7.21875 C 2.144531 -7.613281 2.613281 -7.914062 3.15625 -8.125 C 3.695312 -8.34375 4.300781 -8.453125 4.96875 -8.453125 C 5.40625 -8.453125 5.816406 -8.390625 6.203125 -8.265625 C 6.585938 -8.140625 7.003906 -7.941406 7.453125 -7.671875 Z M 7.65625 -8.34375 "/></g></g></g><g fill="#ffffff" fill-opacity="1"><g transform="translate(101.949822, 31.372269)"><g><path d="M 8.71875 -1.75 C 8.71875 -1.46875 8.726562 -1.242188 8.75 -1.078125 C 8.78125 -0.910156 8.835938 -0.78125 8.921875 -0.6875 C 9.003906 -0.59375 9.117188 -0.523438 9.265625 -0.484375 C 9.410156 -0.453125 9.609375 -0.4375 9.859375 -0.4375 L 9.859375 0 L 5.875 0 L 5.875 -0.4375 C 6.144531 -0.4375 6.359375 -0.453125 6.515625 -0.484375 C 6.679688 -0.523438 6.804688 -0.585938 6.890625 -0.671875 C 6.984375 -0.765625 7.046875 -0.890625 7.078125 -1.046875 C 7.109375 -1.203125 7.125 -1.410156 7.125 -1.671875 L 7.125 -3.9375 L 3.109375 -3.9375 L 3.109375 -1.75 C 3.109375 -1.46875 3.117188 -1.242188 3.140625 -1.078125 C 3.171875 -0.910156 3.226562 -0.78125 3.3125 -0.6875 C 3.40625 -0.59375 3.53125 -0.523438 3.6875 -0.484375 C 3.851562 -0.453125 4.070312 -0.4375 4.34375 -0.4375 L 4.34375 0 L 0.375 0 L 0.375 -0.4375 C 0.625 -0.4375 0.820312 -0.453125 0.96875 -0.484375 C 1.113281 -0.523438 1.222656 -0.585938 1.296875 -0.671875 C 1.378906 -0.765625 1.4375 -0.890625 1.46875 -1.046875 C 1.5 -1.203125 1.515625 -1.410156 1.515625 -1.671875 L 1.515625 -6.671875 C 1.515625 -6.921875 1.5 -7.125 1.46875 -7.28125 C 1.445312 -7.4375 1.398438 -7.554688 1.328125 -7.640625 C 1.253906 -7.734375 1.148438 -7.796875 1.015625 -7.828125 C 0.890625 -7.859375 0.71875 -7.882812 0.5 -7.90625 L 0.5 -8.34375 L 4.234375 -8.34375 L 4.234375 -7.90625 C 3.984375 -7.894531 3.785156 -7.867188 3.640625 -7.828125 C 3.492188 -7.796875 3.378906 -7.734375 3.296875 -7.640625 C 3.222656 -7.546875 3.171875 -7.414062 3.140625 -7.25 C 3.117188 -7.082031 3.109375 -6.863281 3.109375 -6.59375 L 3.109375 -4.609375 L 7.125 -4.609375 L 7.125 -6.671875 C 7.125 -6.921875 7.109375 -7.125 7.078125 -7.28125 C 7.046875 -7.4375 6.988281 -7.554688 6.90625 -7.640625 C 6.832031 -7.734375 6.722656 -7.796875 6.578125 -7.828125 C 6.429688 -7.859375 6.234375 -7.882812 5.984375 -7.90625 L 5.984375 -8.34375 L 9.734375 -8.34375 L 9.734375 -7.90625 C 9.515625 -7.894531 9.335938 -7.867188 9.203125 -7.828125 C 9.078125 -7.796875 8.976562 -7.734375 8.90625 -7.640625 C 8.832031 -7.546875 8.78125 -7.414062 8.75 -7.25 C 8.726562 -7.082031 8.71875 -6.863281 8.71875 -6.59375 Z M 8.71875 -1.75 "/></g></g></g></svg>
